<svg xmlns="http://www.w3.org/2000/svg" xmlns:xlink="http://www.w3.org/1999/xlink" width="800" height="500" viewBox="0 0 800 500"><defs><filter id="a" x="15" y="55" width="173" height="148" filterUnits="userSpaceOnUse"><feOffset dy="3" input="SourceAlpha"/><feGaussianBlur stdDeviation="3" result="b"/><feFlood flood-opacity="0.161"/><feComposite operator="in" in2="b"/><feComposite in="SourceGraphic"/></filter><filter id="c" x="183" y="55" width="173" height="148" filterUnits="userSpaceOnUse"><feOffset dy="3" input="SourceAlpha"/><feGaussianBlur stdDeviation="3" result="d"/><feFlood flood-opacity="0.161"/><feComposite operator="in" in2="d"/><feComposite in="SourceGraphic"/></filter><filter id="e" x="15" y="201" width="173" height="148" filterUnits="userSpaceOnUse"><feOffset dy="3" input="SourceAlpha"/><feGaussianBlur stdDeviation="3" result="f"/><feFlood flood-opacity="0.161"/><feComposite operator="in" in2="f"/><feComposite in="SourceGraphic"/></filter><filter id="g" x="189" y="207" width="161" height="136" filterUnits="userSpaceOnUse"><feOffset dy="3" input="SourceAlpha"/><feGaussianBlur stdDeviation="1" result="h"/><feFlood flood-opacity="0.161"/><feComposite operator="in" in2="h"/><feComposite in="SourceGraphic"/></filter><filter id="i" x="426" y="155" width="337" height="290" filterUnits="userSpaceOnUse"><feOffset dy="3" input="SourceAlpha"/><feGaussianBlur stdDeviation="3" result="j"/><feFlood flood-opacity="0.161"/><feComposite operator="in" in2="j"/><feComposite in="SourceGraphic"/></filter><filter id="k" x="458" y="202" width="274" height="65" filterUnits="userSpaceOnUse"><feOffset dy="3" input="SourceAlpha"/><feGaussianBlur stdDeviation="3" result="l"/><feFlood flood-opacity="0.102"/><feComposite operator="in" in2="l"/><feComposite in="SourceGraphic"/></filter><clipPath id="n"><rect width="800" height="500"/></clipPath></defs><g id="m" clip-path="url(#n)"><rect width="800" height="500" fill="#fff"/><g transform="matrix(1, 0, 0, 1, 0, 0)" filter="url(#a)"><rect width="155" height="130" rx="8" transform="translate(24 61)" fill="#1980f2"/></g><g transform="matrix(1, 0, 0, 1, 0, 0)" filter="url(#c)"><rect width="155" height="130" rx="8" transform="translate(192 61)" fill="#ff591a"/></g><g transform="matrix(1, 0, 0, 1, 0, 0)" filter="url(#e)"><rect width="155" height="130" rx="8" transform="translate(24 207)" fill="#49c86c"/></g><g transform="matrix(1, 0, 0, 1, 0, 0)" filter="url(#g)"><rect width="155" height="130" rx="8" transform="translate(192 207)" fill="#f5f8fa"/></g><text transform="translate(24 41)" fill="#9a9a9a" font-size="18" font-family="SFCompactText-Light, SF Text" font-weight="300"><tspan x="0" y="0">Blue Orange Green</tspan></text><rect width="414" height="500" transform="translate(386)" fill="#f5f8fa"/><text transform="translate(521 462)" fill="#1980f2" font-size="14" font-family="SFCompactDisplay-Medium, SF Display" font-weight="500" letter-spacing="0.02em"><tspan x="0" y="0">Forgot your password?</tspan></text><g transform="matrix(1, 0, 0, 1, 0, 0)" filter="url(#i)"><rect width="319" height="272" rx="4" transform="translate(435 161)" fill="#fff"/></g><g transform="translate(9 -20)"><g transform="matrix(1, 0, 0, 1, -9, 20)" filter="url(#k)"><g transform="translate(467 208)" fill="#fff" stroke="#1980f2" stroke-width="1"><rect width="256" height="47" rx="2" stroke="none"/><rect x="0.5" y="0.5" width="255" height="46" rx="1.5" fill="none"/></g></g><text transform="translate(458 221)" fill="#666" font-size="14" font-family="SFCompactDisplay-Medium, SF Display" font-weight="500" letter-spacing="0.02em"><tspan x="0" y="0">Email</tspan></text><text transform="translate(470 256)" fill="#2c2c2c" font-size="14" font-family="SFCompactDisplay-Medium, SF Display" font-weight="500" letter-spacing="0.02em"><tspan x="0" y="0">hello@jinbaba.com</tspan></text><g transform="translate(690 246)" fill="#49c86c" stroke="#49c86c" stroke-width="1"><circle cx="6" cy="6" r="6" stroke="none"/><circle cx="6" cy="6" r="5.5" fill="none"/></g></g><g transform="translate(9 59)"><g transform="translate(458 228)" fill="#fff" stroke="#c2c5c9" stroke-width="1"><rect width="256" height="47" rx="2" stroke="none"/><rect x="0.5" y="0.5" width="255" height="46" rx="1.5" fill="none"/></g><text transform="translate(458 221)" fill="#666" font-size="14" font-family="SFCompactDisplay-Medium, SF Display" font-weight="500" letter-spacing="0.02em"><tspan x="0" y="0">Password</tspan></text></g><g transform="translate(8 -16)"><rect width="255" height="50" rx="2" transform="translate(459 370)" fill="#1980f2"/><text transform="translate(519 401)" fill="#f5f8fa" font-size="16" font-family="SFCompactDisplay-Regular, SF Display" letter-spacing="0.02em"><tspan x="0" y="0">Login your account</tspan></text></g><g transform="translate(0 -10)"><line x2="47" transform="translate(528.5 137.5)" fill="none" stroke="#ff591a" stroke-width="2"/><text transform="translate(528 127)" fill="#ff591a" font-size="18" font-family="SFCompactDisplay-Medium, SF Display" font-weight="500" letter-spacing="0.02em"><tspan x="0" y="0">Login</tspan></text><text transform="translate(597 127)" fill="#999" font-size="18" font-family="SFCompactDisplay-Medium, SF Display" font-weight="500" letter-spacing="0.02em"><tspan x="0" y="0">Signup</tspan></text></g><text transform="translate(546 63)" fill="#2c2c2c" font-size="24" font-family="SFCompactDisplay-Black, SF Display" font-weight="800" letter-spacing="0.02em"><tspan x="0" y="0">COLORS</tspan></text><text transform="translate(229 129)" fill="#f5f8fa" font-size="20" font-family="SegoeUI, Segoe UI"><tspan x="0" y="0">#FF591A</tspan></text><text transform="translate(61 129)" fill="#f5f8fa" font-size="20" font-family="SegoeUI, Segoe UI"><tspan x="0" y="0">#1980F2</tspan></text><text transform="translate(61 276)" fill="#f5f8fa" font-size="20" font-family="SegoeUI, Segoe UI"><tspan x="0" y="0">#49C86C</tspan></text><text transform="translate(231 276)" fill="#666" font-size="20" font-family="SegoeUI, Segoe UI"><tspan x="0" y="0">#F5F8FA</tspan></text></g></svg>