<svg xmlns="http://www.w3.org/2000/svg" xmlns:xlink="http://www.w3.org/1999/xlink" width="800" height="500" viewBox="0 0 800 500"><defs><filter id="a" x="15" y="55" width="173" height="148" filterUnits="userSpaceOnUse"><feOffset dy="3" input="SourceAlpha"/><feGaussianBlur stdDeviation="3" result="b"/><feFlood flood-opacity="0.161"/><feComposite operator="in" in2="b"/><feComposite in="SourceGraphic"/></filter><filter id="c" x="15" y="347" width="173" height="148" filterUnits="userSpaceOnUse"><feOffset dy="3" input="SourceAlpha"/><feGaussianBlur stdDeviation="3" result="d"/><feFlood flood-opacity="0.161"/><feComposite operator="in" in2="d"/><feComposite in="SourceGraphic"/></filter><filter id="e" x="184" y="347" width="173" height="148" filterUnits="userSpaceOnUse"><feOffset dy="3" input="SourceAlpha"/><feGaussianBlur stdDeviation="3" result="f"/><feFlood flood-opacity="0.161"/><feComposite operator="in" in2="f"/><feComposite in="SourceGraphic"/></filter><filter id="g" x="353" y="347" width="173" height="148" filterUnits="userSpaceOnUse"><feOffset dy="3" input="SourceAlpha"/><feGaussianBlur stdDeviation="3" result="h"/><feFlood flood-opacity="0.161"/><feComposite operator="in" in2="h"/><feComposite in="SourceGraphic"/></filter><filter id="i" x="184" y="201" width="173" height="148" filterUnits="userSpaceOnUse"><feOffset dy="3" input="SourceAlpha"/><feGaussianBlur stdDeviation="3" result="j"/><feFlood flood-opacity="0.161"/><feComposite operator="in" in2="j"/><feComposite in="SourceGraphic"/></filter><filter id="k" x="184" y="55" width="173" height="148" filterUnits="userSpaceOnUse"><feOffset dy="3" input="SourceAlpha"/><feGaussianBlur stdDeviation="3" result="l"/><feFlood flood-opacity="0.161"/><feComposite operator="in" in2="l"/><feComposite in="SourceGraphic"/></filter><filter id="m" x="353" y="55" width="173" height="148" filterUnits="userSpaceOnUse"><feOffset dy="3" input="SourceAlpha"/><feGaussianBlur stdDeviation="3" result="n"/><feFlood flood-opacity="0.161"/><feComposite operator="in" in2="n"/><feComposite in="SourceGraphic"/></filter><filter id="o" x="522" y="55" width="173" height="148" filterUnits="userSpaceOnUse"><feOffset dy="3" input="SourceAlpha"/><feGaussianBlur stdDeviation="3" result="p"/><feFlood flood-opacity="0.161"/><feComposite operator="in" in2="p"/><feComposite in="SourceGraphic"/></filter><filter id="q" x="353" y="201" width="173" height="148" filterUnits="userSpaceOnUse"><feOffset dy="3" input="SourceAlpha"/><feGaussianBlur stdDeviation="3" result="r"/><feFlood flood-opacity="0.161"/><feComposite operator="in" in2="r"/><feComposite in="SourceGraphic"/></filter><filter id="s" x="522" y="201" width="173" height="148" filterUnits="userSpaceOnUse"><feOffset dy="3" input="SourceAlpha"/><feGaussianBlur stdDeviation="3" result="t"/><feFlood flood-opacity="0.161"/><feComposite operator="in" in2="t"/><feComposite in="SourceGraphic"/></filter><filter id="u" x="15" y="201" width="173" height="148" filterUnits="userSpaceOnUse"><feOffset dy="3" input="SourceAlpha"/><feGaussianBlur stdDeviation="3" result="v"/><feFlood flood-opacity="0.161"/><feComposite operator="in" in2="v"/><feComposite in="SourceGraphic"/></filter><filter id="w" x="522" y="347" width="173" height="148" filterUnits="userSpaceOnUse"><feOffset dy="3" input="SourceAlpha"/><feGaussianBlur stdDeviation="3" result="x"/><feFlood flood-opacity="0.161"/><feComposite operator="in" in2="x"/><feComposite in="SourceGraphic"/></filter><clipPath id="z"><rect width="800" height="500"/></clipPath></defs><g id="y" clip-path="url(#z)"><rect width="800" height="500" fill="#fff"/><g transform="matrix(1, 0, 0, 1, 0, 0)" filter="url(#a)"><rect width="155" height="130" rx="8" transform="translate(24 61)" fill="#3f549c"/></g><g transform="matrix(1, 0, 0, 1, 0, 0)" filter="url(#c)"><rect width="155" height="130" rx="8" transform="translate(24 353)" fill="#414656"/></g><g transform="matrix(1, 0, 0, 1, 0, 0)" filter="url(#e)"><rect width="155" height="130" rx="8" transform="translate(193 353)" fill="#666c80"/></g><g transform="matrix(1, 0, 0, 1, 0, 0)" filter="url(#g)"><rect width="155" height="130" rx="8" transform="translate(362 353)" fill="#c2c4cc"/></g><g transform="matrix(1, 0, 0, 1, 0, 0)" filter="url(#i)"><rect width="155" height="130" rx="8" transform="translate(193 207)" fill="#3f9c7d"/></g><g transform="matrix(1, 0, 0, 1, 0, 0)" filter="url(#k)"><rect width="155" height="130" rx="8" transform="translate(193 61)" fill="#d8354d"/></g><g transform="matrix(1, 0, 0, 1, 0, 0)" filter="url(#m)"><rect width="155" height="130" rx="8" transform="translate(362 61)" fill="#ffe07a"/></g><g transform="matrix(1, 0, 0, 1, 0, 0)" filter="url(#o)"><rect width="155" height="130" rx="8" transform="translate(531 61)" fill="#7ad3ff"/></g><g transform="matrix(1, 0, 0, 1, 0, 0)" filter="url(#q)"><rect width="155" height="130" rx="8" transform="translate(362 207)" fill="#9778d6"/></g><g transform="matrix(1, 0, 0, 1, 0, 0)" filter="url(#s)"><rect width="155" height="130" rx="8" transform="translate(531 207)" fill="#68e2f6"/></g><g transform="matrix(1, 0, 0, 1, 0, 0)" filter="url(#u)"><rect width="155" height="130" rx="8" transform="translate(24 207)" fill="#357cd8"/></g><g transform="matrix(1, 0, 0, 1, 0, 0)" filter="url(#w)"><rect width="155" height="130" rx="8" transform="translate(531 353)" fill="#f2f4f7"/></g><text transform="translate(228 41)" fill="#9a9a9a" font-size="18" font-family="SFCompactText-Light, SF Text" font-weight="300"><tspan x="-203.511" y="0">Dashboard Design Colors</tspan></text><text transform="translate(62 135)" fill="#f1f7ff" font-size="20" font-family="SegoeUI, Segoe UI"><tspan x="0" y="0">#3F549C</tspan></text><text transform="translate(62 281)" fill="#f1f7ff" font-size="20" font-family="SegoeUI, Segoe UI"><tspan x="0" y="0">#357CD8</tspan></text><text transform="translate(62 427)" fill="#f1f7ff" font-size="20" font-family="SegoeUI, Segoe UI"><tspan x="0" y="0">#414656</tspan></text><text transform="translate(228 427)" fill="#f1f7ff" font-size="20" font-family="SegoeUI, Segoe UI"><tspan x="0" y="0">#666C80</tspan></text><text transform="translate(232 281)" fill="#f1f7ff" font-size="20" font-family="SegoeUI, Segoe UI"><tspan x="0" y="0">#3F9C7D</tspan></text><text transform="translate(232 135)" fill="#f1f7ff" font-size="20" font-family="SegoeUI, Segoe UI"><tspan x="0" y="0">#D8354D</tspan></text><text transform="translate(401 281)" fill="#f1f7ff" font-size="20" font-family="SegoeUI, Segoe UI"><tspan x="0" y="0">#9778D6</tspan></text><text transform="translate(570 427)" fill="#42434e" font-size="20" font-family="SegoeUI, Segoe UI"><tspan x="0" y="0">#F2F4F7</tspan></text><text transform="translate(400 427)" fill="#42434e" font-size="20" font-family="SegoeUI, Segoe UI"><tspan x="0" y="0">#C2C4CC</tspan></text><text transform="translate(570 281)" fill="#42434e" font-size="20" font-family="SegoeUI, Segoe UI"><tspan x="0" y="0">#68E2F6</tspan></text><text transform="translate(570 135)" fill="#42434e" font-size="20" font-family="SegoeUI, Segoe UI"><tspan x="0" y="0">#7AD3FF</tspan></text><text transform="translate(400 135)" fill="#42434e" font-size="20" font-family="SegoeUI, Segoe UI"><tspan x="0" y="0">#FFE07A</tspan></text></g></svg>