<svg xmlns="http://www.w3.org/2000/svg" xmlns:xlink="http://www.w3.org/1999/xlink" width="800" height="500" viewBox="0 0 800 500"><defs><filter id="a" x="15" y="47" width="173" height="148" filterUnits="userSpaceOnUse"><feOffset dy="3" input="SourceAlpha"/><feGaussianBlur stdDeviation="3" result="b"/><feFlood flood-opacity="0.161"/><feComposite operator="in" in2="b"/><feComposite in="SourceGraphic"/></filter><filter id="c" x="183" y="47" width="173" height="148" filterUnits="userSpaceOnUse"><feOffset dy="3" input="SourceAlpha"/><feGaussianBlur stdDeviation="3" result="d"/><feFlood flood-opacity="0.161"/><feComposite operator="in" in2="d"/><feComposite in="SourceGraphic"/></filter><filter id="e" x="183" y="193" width="173" height="148" filterUnits="userSpaceOnUse"><feOffset dy="3" input="SourceAlpha"/><feGaussianBlur stdDeviation="3" result="f"/><feFlood flood-opacity="0.161"/><feComposite operator="in" in2="f"/><feComposite in="SourceGraphic"/></filter><filter id="g" x="183" y="339" width="173" height="148" filterUnits="userSpaceOnUse"><feOffset dy="3" input="SourceAlpha"/><feGaussianBlur stdDeviation="3" result="h"/><feFlood flood-opacity="0.161"/><feComposite operator="in" in2="h"/><feComposite in="SourceGraphic"/></filter><filter id="i" x="15" y="193" width="173" height="148" filterUnits="userSpaceOnUse"><feOffset dy="3" input="SourceAlpha"/><feGaussianBlur stdDeviation="3" result="j"/><feFlood flood-opacity="0.161"/><feComposite operator="in" in2="j"/><feComposite in="SourceGraphic"/></filter><filter id="k" x="15" y="339" width="173" height="148" filterUnits="userSpaceOnUse"><feOffset dy="3" input="SourceAlpha"/><feGaussianBlur stdDeviation="3" result="l"/><feFlood flood-opacity="0.161"/><feComposite operator="in" in2="l"/><feComposite in="SourceGraphic"/></filter><filter id="m" x="425" y="155" width="337" height="290" filterUnits="userSpaceOnUse"><feOffset dy="3" input="SourceAlpha"/><feGaussianBlur stdDeviation="3" result="n"/><feFlood flood-opacity="0.161"/><feComposite operator="in" in2="n"/><feComposite in="SourceGraphic"/></filter><filter id="o" x="457" y="281" width="274" height="65" filterUnits="userSpaceOnUse"><feOffset dy="3" input="SourceAlpha"/><feGaussianBlur stdDeviation="3" result="p"/><feFlood flood-opacity="0.102"/><feComposite operator="in" in2="p"/><feComposite in="SourceGraphic"/></filter><clipPath id="r"><rect width="800" height="500"/></clipPath></defs><g id="q" clip-path="url(#r)"><rect width="800" height="500" fill="#fff"/><g transform="matrix(1, 0, 0, 1, 0, 0)" filter="url(#a)"><rect width="155" height="130" rx="8" transform="translate(24 53)" fill="#377fea"/></g><g transform="matrix(1, 0, 0, 1, 0, 0)" filter="url(#c)"><rect width="155" height="130" rx="8" transform="translate(192 53)" fill="#00c5de"/></g><g transform="matrix(1, 0, 0, 1, 0, 0)" filter="url(#e)"><rect width="155" height="130" rx="8" transform="translate(192 199)" fill="#ff8797"/></g><g transform="matrix(1, 0, 0, 1, 0, 0)" filter="url(#g)"><rect width="155" height="130" rx="8" transform="translate(192 345)" fill="#253267"/></g><g transform="matrix(1, 0, 0, 1, 0, 0)" filter="url(#i)"><rect width="155" height="130" rx="8" transform="translate(24 199)" fill="#6573ff"/></g><g transform="matrix(1, 0, 0, 1, 0, 0)" filter="url(#k)"><rect width="155" height="130" rx="8" transform="translate(24 345)" fill="#ffc64d"/></g><text transform="translate(126 41)" fill="#9a9a9a" font-size="18" font-family="SFCompactText-Light, SF Text" font-weight="300"><tspan x="-101.755" y="0">Dashboard Design Colors</tspan></text><rect width="414" height="500" transform="translate(386)" fill="#fafafc"/><text transform="translate(521 462)" fill="#377fea" font-size="14" font-family="SFCompactDisplay-Medium, SF Display" font-weight="500" letter-spacing="0.02em"><tspan x="0" y="0">Forgot your password?</tspan></text><g transform="matrix(1, 0, 0, 1, 0, 0)" filter="url(#m)"><rect width="319" height="272" rx="4" transform="translate(434 161)" fill="#fff"/></g><g transform="translate(8 -20)"><g transform="translate(458 228)" fill="#fff" stroke="#d5d7e0" stroke-width="1"><rect width="256" height="47" rx="2" stroke="none"/><rect x="0.5" y="0.5" width="255" height="46" rx="1.5" fill="none"/></g><text transform="translate(458 221)" fill="#666" font-size="14" font-family="SFCompactDisplay-Medium, SF Display" font-weight="500" letter-spacing="0.02em"><tspan x="0" y="0">Email</tspan></text><text transform="translate(470 256)" fill="#2c2c2c" font-size="14" font-family="SFCompactDisplay-Medium, SF Display" font-weight="500" letter-spacing="0.02em"><tspan x="0" y="0">hello@jinbaba.com</tspan></text><circle cx="6" cy="6" r="6" transform="translate(690 246)" fill="#00c5de"/></g><g transform="translate(8 59)"><g transform="matrix(1, 0, 0, 1, -8, -59)" filter="url(#o)"><g transform="translate(466 287)" fill="#fff" stroke="#ff8797" stroke-width="1"><rect width="256" height="47" rx="2" stroke="none"/><rect x="0.5" y="0.5" width="255" height="46" rx="1.5" fill="none"/></g></g><text transform="translate(458 221)" fill="#666" font-size="14" font-family="SFCompactDisplay-Medium, SF Display" font-weight="500" letter-spacing="0.02em"><tspan x="0" y="0">Password</tspan></text><circle cx="6" cy="6" r="6" transform="translate(690 246)" fill="#ff8797"/><text transform="translate(471 256)" fill="#ff8797" font-size="14" font-family="SFCompactDisplay-Medium, SF Display" font-weight="500" letter-spacing="0.02em"><tspan x="0" y="0">Type password again</tspan></text></g><g transform="translate(7 -16)"><rect width="255" height="50" rx="2" transform="translate(459 370)" fill="#253267"/><text transform="translate(519 401)" fill="#f5f8fa" font-size="16" font-family="SFCompactDisplay-Regular, SF Display" letter-spacing="0.02em"><tspan x="0" y="0">Login your account</tspan></text></g><g transform="translate(0 -10)"><text transform="translate(597 127)" fill="#999" font-size="18" font-family="SFCompactDisplay-Medium, SF Display" font-weight="500" letter-spacing="0.02em"><tspan x="0" y="0">Signup</tspan></text><line x2="47" transform="translate(528.5 137.5)" fill="none" stroke="#377fea" stroke-width="2"/><text transform="translate(528 127)" fill="#377fea" font-size="18" font-family="SFCompactDisplay-Medium, SF Display" font-weight="500" letter-spacing="0.02em"><tspan x="0" y="0">Login</tspan></text></g><text transform="translate(546 63)" fill="#2c2c2c" font-size="24" font-family="SFCompactDisplay-Black, SF Display" font-weight="800" letter-spacing="0.02em"><tspan x="0" y="0">COLORS</tspan></text><text transform="translate(229 127)" fill="#282630" font-size="20" font-family="SegoeUI, Segoe UI"><tspan x="0" y="0">#00C5DE</tspan></text><text transform="translate(63 127)" fill="#f5f8fa" font-size="20" font-family="SegoeUI, Segoe UI"><tspan x="0" y="0">#377FEA</tspan></text><text transform="translate(61 272)" fill="#f5f8fa" font-size="20" font-family="SegoeUI, Segoe UI"><tspan x="0" y="0">#6573FF</tspan></text><text transform="translate(228 419)" fill="#f5f8fa" font-size="20" font-family="SegoeUI, Segoe UI"><tspan x="0" y="0">#253267</tspan></text><text transform="translate(61 419)" fill="#282630" font-size="20" font-family="SegoeUI, Segoe UI"><tspan x="0" y="0">#FFC64D</tspan></text><text transform="translate(233 273)" fill="#282630" font-size="20" font-family="SegoeUI, Segoe UI"><tspan x="0" y="0">#FF8797</tspan></text></g></svg>